<svg xmlns="http://www.w3.org/2000/svg" viewBox="0 0 7.36 7.39"><defs><style>.cls-1,.cls-2{}.cls-2{fill-rule:evenodd;}</style></defs><title>Ресурс 1</title><g id="Слой_2" data-name="Слой 2"><g id="PRINT"><path class="cls-1" d="M3.72,0A3.64,3.64,0,0,0,.08,3.64,3.72,3.72,0,0,0,.54,5.43L0,7.39l2-.56a3.6,3.6,0,0,0,1.76.45A3.64,3.64,0,0,0,3.72,0Zm0,6.66A3,3,0,0,1,2,6.14L.91,6.46l.31-1.12a3,3,0,1,1,2.5,1.32Z"/><path class="cls-2" d="M5.39,4.39l-.62-.3c-.09,0-.15,0-.21,0s-.24.29-.29.35-.11.07-.2,0a2.49,2.49,0,0,1-.73-.45,2.78,2.78,0,0,1-.52-.63.16.16,0,0,1,0-.19A.73.73,0,0,0,3,3.09l0,0,0-.11a.12.12,0,0,0,0-.15s-.2-.5-.28-.68S2.65,2,2.6,2H2.42a.31.31,0,0,0-.24.12,1,1,0,0,0-.32.75,1.06,1.06,0,0,0,0,.31,2,2,0,0,0,.32.63A3.74,3.74,0,0,0,3.79,5.13c.94.36.94.24,1.11.23a.92.92,0,0,0,.61-.44.65.65,0,0,0,0-.43.46.46,0,0,0-.17-.1Z"/></g></g></svg>